<svg width="800" height="450" viewBox="0 0 800 450" fill="none" xmlns="http://www.w3.org/2000/svg">
  <!-- Background -->
  <rect width="800" height="450" fill="#f2f7ff"/>
  
  <!-- Bull Silhouette -->
  <g transform="translate(200, 225) scale(1.5)">
    <path d="M100,60 C120,25 140,10 160,20 C170,25 173,40 170,50 C190,35 210,45 205,70 C220,60 230,80 220,95 C240,95 245,115 235,125 C250,140 245,160 225,165 C230,180 220,190 210,190 C200,195 190,185 185,175 C180,185 165,190 150,185 C140,195 120,195 110,185 C100,190 85,185 80,175 C75,180 65,180 60,175 C50,180 35,175 30,165 C20,170 10,160 15,150 C5,145 0,130 10,120 C0,110 5,95 15,90 C10,80 15,65 25,60 C20,45 30,30 45,30 C45,15 60,5 75,10 C85,0 100,0 110,10 C120,5 135,10 135,20 C150,15 160,20 165,30 C175,25 190,30 190,45 C200,45 205,55 200,65 C200,75 150,80 100,60 Z" fill="#8B4513"/>
    <circle cx="55" cy="60" r="5" fill="white"/>
    <circle cx="55" cy="60" r="2" fill="black"/>
    <circle cx="90" cy="60" r="5" fill="white"/>
    <circle cx="90" cy="60" r="2" fill="black"/>
    <path d="M120,80 C120,100 80,100 80,80" stroke="black" stroke-width="2" fill="none"/>
    <path d="M45,40 L25,10" stroke="black" stroke-width="3" fill="none"/>
    <path d="M105,40 L125,10" stroke="black" stroke-width="3" fill="none"/>
  </g>
  
  <!-- Cow Silhouette -->
  <g transform="translate(500, 225) scale(1.5)">
    <path d="M100,70 C120,40 140,30 150,40 C160,35 170,40 170,50 C180,45 190,50 190,60 C200,60 200,75 195,80 C205,90 200,100 190,105 C195,115 185,125 175,125 C170,135 160,135 155,130 C150,140 135,140 130,130 C120,140 105,135 100,125 C90,135 75,130 70,120 C60,125 50,120 45,110 C40,115 30,110 25,100 C15,105 10,95 10,85 C5,80 5,70 15,65 C10,55 15,45 25,45 C25,35 35,30 45,35 C50,25 60,25 70,30 C80,20 95,25 100,35 C110,30 120,35 125,45 C140,40 150,50 145,60 C160,60 160,70 150,75 C150,80 125,85 100,70 Z" fill="#BF8578"/>
    <circle cx="55" cy="60" r="4" fill="white"/>
    <circle cx="55" cy="60" r="2" fill="black"/>
    <circle cx="80" cy="60" r="4" fill="white"/>
    <circle cx="80" cy="60" r="2" fill="black"/>
    <path d="M70,75 C70,85 60,85 60,75" stroke="black" stroke-width="1.5" fill="none"/>
    <path d="M35,45 L25,25" stroke="black" stroke-width="2" fill="none"/>
    <path d="M100,45 L110,25" stroke="black" stroke-width="2" fill="none"/>
    <ellipse cx="65" cy="100" rx="10" ry="5" fill="#FCB5B5"/>
    <ellipse cx="85" cy="100" rx="10" ry="5" fill="#FCB5B5"/>
  </g>
  
  <!-- Numbers -->
  <g transform="translate(400, 360)">
    <rect x="-80" y="-40" width="160" height="60" rx="10" fill="#4338CA"/>
    <text x="0" y="0" font-family="Arial" font-size="40" font-weight="bold" fill="white" text-anchor="middle" dominant-baseline="middle">1 2 3 4</text>
  </g>
  
  <!-- Game Title -->
  <text x="400" y="80" font-family="Arial" font-size="48" font-weight="bold" fill="#4338CA" text-anchor="middle">Cows and Bulls</text>
  <text x="400" y="130" font-family="Arial" font-size="24" fill="#6C6C6C" text-anchor="middle">A multiplayer number guessing game</text>
</svg> 